<svg xmlns="http://www.w3.org/2000/svg" viewBox="0 0 30.75 30"><defs><style>.cls-1{fill:#8b8c99;}</style></defs><title>img-github</title><g id="Layer_2" data-name="Layer 2"><g id="Layer_1-2" data-name="Layer 1"><path class="cls-1" d="M28.69,7.66a15.27,15.27,0,0,0-5.6-5.6A15,15,0,0,0,15.38,0,15.08,15.08,0,0,0,7.66,2.06a15.34,15.34,0,0,0-5.6,5.6A15.08,15.08,0,0,0,0,15.38a14.94,14.94,0,0,0,2.93,9A15.07,15.07,0,0,0,10.51,30a.88.88,0,0,0,.8-.14.76.76,0,0,0,.26-.6s0-.4,0-1.08,0-1.28,0-1.78l-.46.08a6.81,6.81,0,0,1-1.11.07,9.77,9.77,0,0,1-1.39-.14,3.17,3.17,0,0,1-1.34-.6,2.53,2.53,0,0,1-.88-1.23l-.2-.47a6.18,6.18,0,0,0-.63-1,2.58,2.58,0,0,0-.87-.76l-.15-.1A1.16,1.16,0,0,1,4.26,22a1,1,0,0,1-.18-.28c0-.09,0-.17.1-.23a1.34,1.34,0,0,1,.58-.09l.41.06a3.35,3.35,0,0,1,1,.48,3.45,3.45,0,0,1,1,1A3.44,3.44,0,0,0,8.24,24.2a2.39,2.39,0,0,0,1.31.42,6.27,6.27,0,0,0,1.14-.09,4.32,4.32,0,0,0,.9-.3,3.27,3.27,0,0,1,1-2.07,13.77,13.77,0,0,1-2.05-.36A8.17,8.17,0,0,1,8.64,21,5.31,5.31,0,0,1,7,19.68a6.34,6.34,0,0,1-1-2.1,9.83,9.83,0,0,1-.41-3,5.8,5.8,0,0,1,1.58-4.12,5.33,5.33,0,0,1,.14-4.08A2.81,2.81,0,0,1,9,6.64a11.09,11.09,0,0,1,1.67.77c.36.21.64.39.85.54a14.48,14.48,0,0,1,7.69,0L20,7.47a10.52,10.52,0,0,1,1.84-.88,2.62,2.62,0,0,1,1.63-.22,5.34,5.34,0,0,1,.16,4.08,5.85,5.85,0,0,1,1.58,4.12,10.26,10.26,0,0,1-.41,3,6.44,6.44,0,0,1-1.06,2.1A5.63,5.63,0,0,1,22.09,21a8,8,0,0,1-1.88.78,13.77,13.77,0,0,1-2.05.36,3.59,3.59,0,0,1,1,2.85v4.22a.79.79,0,0,0,.25.6.86.86,0,0,0,.79.14,15.07,15.07,0,0,0,7.58-5.56,14.94,14.94,0,0,0,2.93-9,15.08,15.08,0,0,0-2.06-7.72Z"/></g></g></svg>