<svg xmlns="http://www.w3.org/2000/svg" viewBox="0 0 41.7 29.95"><defs><style>.cls-1{fill:#8b8c99;}</style></defs><title>img-email</title><g id="Layer_2" data-name="Layer 2"><g id="Layer_1-2" data-name="Layer 1"><path class="cls-1" d="M37.5,0H4.2A4.19,4.19,0,0,0,0,4.2V25.75A4.19,4.19,0,0,0,4.2,30H37.6a4.11,4.11,0,0,0,4.1-4.2V4.2A4.19,4.19,0,0,0,37.5,0Zm1.4,25.75a1.44,1.44,0,0,1-1.4,1.4H4.2a1.44,1.44,0,0,1-1.4-1.4V4.2A1.43,1.43,0,0,1,4.2,2.8H37.5a1.43,1.43,0,0,1,1.4,1.4Z"/><path class="cls-1" d="M20.9,20.15a1.2,1.2,0,0,1-.94-.37L1.31,3.26a1.34,1.34,0,0,1-.1-1.95,1.35,1.35,0,0,1,2-.1L20.9,16.89,38.62,1.21a1.45,1.45,0,0,1,2,.1,1.42,1.42,0,0,1-.09,1.95L21.83,19.78a2,2,0,0,1-.93.37Z"/><path class="cls-1" d="M1.68,28.64a1.52,1.52,0,0,1-1-.47,1.35,1.35,0,0,1,.1-2L14,13.71a1.39,1.39,0,0,1,1.87,2.06L2.71,28.27a2,2,0,0,1-1,.37"/><path class="cls-1" d="M40,28.64a1.19,1.19,0,0,1-.93-.37L25.84,15.77a1.39,1.39,0,0,1,1.87-2.06L41,26.21a1.45,1.45,0,0,1,.1,2,1.52,1.52,0,0,1-1,.47"/></g></g></svg>